<svg width="381" height="74" viewBox="0 0 381 74" fill="none" xmlns="http://www.w3.org/2000/svg">
<path d="M35.7103 0L23.9575 12.3457V26.2741L12.2048 12.3457H0L35.7103 52.0733H47.915L84.68 12.3457H73.3793L60.7225 26.2741V12.3457L47.915 0V38.9363H35.7103V0Z" fill="#FF5391"/>
<path d="M34.5 60.1567L13.14 37.77V54L34.5 74H50L71.7833 54V37.77L50 60.1567H34.5Z" fill="#61F6FF"/>
<path d="M102.964 17.8936H110.084V27.0576H131.916V17.8936H139.059V53H131.916V33.1445H110.084V53H102.964V17.8936ZM161.003 17.8936H168.55L185.53 53H178.051L175.243 47.0928H154.736L152.019 53H144.517L161.003 17.8936ZM172.436 41.2305L164.844 25.2832L157.454 41.2305H172.436ZM190.988 17.8936H208.845C211.54 17.8936 213.876 18.1781 215.853 18.7471C217.829 19.3011 219.469 20.1097 220.771 21.1729C222.074 22.236 223.04 23.5312 223.669 25.0586C224.313 26.5859 224.635 28.3154 224.635 30.2471C224.635 31.5498 224.478 32.7926 224.163 33.9756C223.849 35.1436 223.362 36.2217 222.703 37.21C222.059 38.1982 221.243 39.0817 220.255 39.8604C219.267 40.624 218.106 41.2604 216.773 41.7695L224.41 53H215.695L209.092 43.0273H208.89L198.108 43.0049V53H190.988V17.8936ZM209.024 36.8506C210.372 36.8506 211.548 36.6934 212.551 36.3789C213.569 36.0645 214.415 35.6227 215.089 35.0537C215.778 34.4847 216.287 33.7959 216.616 32.9873C216.961 32.1637 217.133 31.2503 217.133 30.2471C217.133 28.2855 216.459 26.7731 215.111 25.71C213.764 24.6318 211.735 24.0928 209.024 24.0928H198.108V36.8506H209.024ZM243.839 44.3076L228.498 17.8936H236.562L247.365 37.8613L258.034 17.8936H266.098L250.959 44.2627V53H243.839V44.3076ZM270.163 17.8936H277.283V37.2324C277.283 38.8197 277.5 40.2347 277.935 41.4775C278.369 42.7054 279.013 43.7461 279.866 44.5996C280.735 45.4531 281.805 46.1045 283.078 46.5537C284.351 46.988 285.833 47.2051 287.525 47.2051C289.202 47.2051 290.677 46.988 291.95 46.5537C293.238 46.1045 294.309 45.4531 295.162 44.5996C296.031 43.7461 296.682 42.7054 297.116 41.4775C297.55 40.2347 297.768 38.8197 297.768 37.2324V17.8936H304.888V38.0859C304.888 40.3919 304.498 42.4883 303.72 44.375C302.941 46.2617 301.811 47.8789 300.328 49.2266C298.846 50.5742 297.026 51.6149 294.87 52.3486C292.729 53.0824 290.281 53.4492 287.525 53.4492C284.77 53.4492 282.314 53.0824 280.158 52.3486C278.017 51.6149 276.205 50.5742 274.723 49.2266C273.24 47.8789 272.11 46.2617 271.331 44.375C270.552 42.4883 270.163 40.3919 270.163 38.0859V17.8936ZM313.58 17.8936H320.7V36.0645L339.23 17.8936H348.35L331.055 34.6494L348.35 53H338.871L325.934 39.6133L320.7 44.667V53H313.58V17.8936ZM350.955 17.8936H358.12V53H350.955V17.8936Z" fill="white"/>
</svg>
